<svg width="24" height="24" viewBox="0 0 24 24" fill="none" xmlns="http://www.w3.org/2000/svg">
<path fill-rule="evenodd" clip-rule="evenodd" d="M5 6C4.73478 6 4.48043 6.10536 4.29289 6.29289C4.10536 6.48043 4 6.73478 4 7V21C4 21.2652 4.10536 21.5196 4.29289 21.7071C4.48043 21.8946 4.73478 22 5 22H9C9.55228 22 10 22.4477 10 23C10 23.5523 9.55228 24 9 24H5C4.20435 24 3.44129 23.6839 2.87868 23.1213C2.31607 22.5587 2 21.7957 2 21V7C2 6.20435 2.31607 5.44129 2.87868 4.87868C3.44129 4.31607 4.20435 4 5 4H9C9.55228 4 10 4.44772 10 5C10 5.55228 9.55228 6 9 6H5Z" fill="#909090"/>
<path fill-rule="evenodd" clip-rule="evenodd" d="M15.2929 8.29289C15.6834 7.90237 16.3166 7.90237 16.7071 8.29289L21.7071 13.2929C22.0976 13.6834 22.0976 14.3166 21.7071 14.7071L16.7071 19.7071C16.3166 20.0976 15.6834 20.0976 15.2929 19.7071C14.9024 19.3166 14.9024 18.6834 15.2929 18.2929L19.5858 14L15.2929 9.70711C14.9024 9.31658 14.9024 8.68342 15.2929 8.29289Z" fill="#909090"/>
<path fill-rule="evenodd" clip-rule="evenodd" d="M8 14C8 13.4477 8.44772 13 9 13H21C21.5523 13 22 13.4477 22 14C22 14.5523 21.5523 15 21 15H9C8.44772 15 8 14.5523 8 14Z" fill="#909090"/>
</svg>
