<svg width="22" height="21" viewBox="0 0 22 21" fill="none" xmlns="http://www.w3.org/2000/svg">
<path d="M17.8668 0.735857L2.57492 4.07615C1.97222 4.20896 1.42515 4.52442 1.00829 4.97952C0.591424 5.43461 0.325064 6.0072 0.245521 6.61921C0.165978 7.23122 0.277122 7.85288 0.563801 8.39941C0.850481 8.94595 1.29874 9.39077 1.84747 9.67323L7.08681 12.3465C7.2107 12.4133 7.32003 12.5042 7.40842 12.6138C7.4968 12.7234 7.56247 12.8495 7.60159 12.9848L9.10467 18.6714C9.23315 19.1545 9.48031 19.5979 9.82372 19.9612C10.1671 20.3245 10.5959 20.5962 11.071 20.7517C11.5461 20.9071 12.0526 20.9414 12.5443 20.8513C13.0361 20.7613 13.4975 20.5498 13.8867 20.236C14.2482 19.9384 14.5386 19.5638 14.7366 19.1394L21.2395 4.90173C21.4693 4.39552 21.5538 3.83544 21.4838 3.28398C21.4137 2.73252 21.1918 2.21137 20.8428 1.77867C20.4938 1.34597 20.0315 1.01874 19.5074 0.833498C18.9833 0.648253 18.418 0.612275 17.8746 0.729579L17.8668 0.735857ZM19.4153 4.07343L12.9124 18.3111C12.8247 18.4952 12.6828 18.6482 12.5057 18.7494C12.3287 18.8506 12.1249 18.8952 11.9218 18.8773C11.7186 18.8594 11.5258 18.7799 11.3692 18.6493C11.2125 18.5187 11.0996 18.3433 11.0454 18.1467L9.53455 12.4664C9.51361 12.3912 9.48829 12.3172 9.4587 12.2449L14.8218 7.91949C15.0282 7.75299 15.1601 7.5113 15.1883 7.24759C15.2166 6.98388 15.1389 6.71975 14.9724 6.51331C14.8059 6.30687 14.5642 6.17503 14.3005 6.14679C14.0368 6.11854 13.7727 6.19621 13.5662 6.36271L8.20313 10.6882C8.13876 10.6439 8.07185 10.6035 8.00275 10.5671L2.77119 7.88761C2.59051 7.79304 2.44306 7.6455 2.34862 7.46476C2.25417 7.28401 2.21724 7.07872 2.24277 6.87639C2.26831 6.67406 2.3551 6.48438 2.4915 6.33278C2.62789 6.18117 2.80738 6.0749 3.00589 6.0282L18.2978 2.6879C18.478 2.65039 18.665 2.66333 18.8383 2.7253C19.0116 2.78727 19.1645 2.89586 19.28 3.03912C19.3955 3.18238 19.4693 3.35475 19.4932 3.53724C19.517 3.71973 19.4901 3.90527 19.4153 4.07343Z" fill="#333A4D"/>
</svg>
