<svg width="51" height="54" viewBox="0 0 51 54" fill="none" xmlns="http://www.w3.org/2000/svg">
<path d="M50.3532 0.733093L47.1532 1.79976C41.6689 3.70521 35.8125 4.28994 30.0598 3.50643C24.0149 2.56832 17.8276 3.40194 12.2465 5.90643C9.28778 7.16628 6.69118 9.1462 4.6931 11.6659C2.69503 14.1856 1.35894 17.1651 0.806501 20.3331C0.244548 23.3796 0.302033 26.5082 0.975524 29.532C1.64902 32.5558 2.92471 35.413 4.7265 37.9331C4.5665 38.4931 4.4065 39.0531 4.27317 39.6131C3.19008 44.2185 2.65305 48.9354 2.67317 53.6664H8.0065C8.25716 49.794 8.78294 45.9443 9.57984 42.1464C13.2797 44.1443 17.4288 45.1632 21.6332 45.1064C25.5544 45.1037 29.4354 44.3148 33.0465 42.7864C53.3398 34.1198 50.6732 5.29309 50.6732 4.09309L50.3532 0.733093ZM30.9665 37.8798C24.0065 40.8398 15.6865 40.3331 11.0198 36.6798C11.8085 34.0425 12.8909 31.5021 14.2465 29.1064C15.3004 27.3822 16.5436 25.7811 17.9532 24.3331C19.3934 22.8696 21.0156 21.597 22.7798 20.5464C26.4254 18.3666 30.4684 16.9343 34.6732 16.3331V13.6664C29.8353 13.499 25.027 14.4862 20.6465 16.5464C16.1676 18.7319 12.3692 22.097 9.65983 26.2798C8.65495 27.8773 7.76386 29.5436 6.99317 31.2664C5.75722 28.1047 5.40688 24.6658 5.97983 21.3198C6.35523 18.9772 7.3209 16.7688 8.78583 14.9026C10.2508 13.0364 12.1667 11.574 14.3532 10.6531C17.5415 9.16285 21.0205 8.39784 24.5398 8.41309C26.1932 8.41309 27.8198 8.57309 29.5265 8.70643C34.8714 9.39603 40.2981 9.07947 45.5265 7.77309C45.3398 15.1331 44.0065 32.3331 30.9665 37.8798Z" fill="#FF5500"/>
</svg>
