<svg width="88" height="89" viewBox="0 0 88 89" fill="none" xmlns="http://www.w3.org/2000/svg">
<path d="M44.001 6.75012C64.7017 6.75012 81.4825 23.531 81.4825 44.2316C81.4825 64.9322 64.7017 81.7131 44.001 81.7131C23.3004 81.7131 6.51953 64.9322 6.51953 44.2316C6.51953 23.531 23.3004 6.75012 44.001 6.75012Z" stroke="#E01C1C" stroke-width="8.69136" stroke-linecap="round" stroke-linejoin="round"/>
<path d="M59.7115 65C58.6135 65 57.5176 64.5804 56.6785 63.7434L24.2571 31.3195C22.581 29.6454 22.581 26.9297 24.2571 25.2556C25.9312 23.5815 28.6469 23.5815 30.321 25.2556L62.7444 57.6794C64.4185 59.3535 64.4185 62.0693 62.7444 63.7434C61.9074 64.5804 60.8094 65 59.7115 65Z" fill="#E01C1C"/>
<path d="M27.2885 65C26.1905 65 25.0947 64.5804 24.2555 63.7434C22.5815 62.0693 22.5815 59.3535 24.2555 57.6794L56.6807 25.2556C58.3547 23.5815 61.0704 23.5815 62.7445 25.2556C64.4185 26.9297 64.4185 29.6454 62.7445 31.3195L30.3214 63.7434C29.4844 64.5804 28.3864 65 27.2885 65Z" fill="#E01C1C"/>
</svg>
