<svg width="19" height="18" viewBox="0 0 19 18" fill="none" xmlns="http://www.w3.org/2000/svg">
<g clip-path="url(#clip0_2394_40890)">
<path fill-rule="evenodd" clip-rule="evenodd" d="M4.05803 3.74914C3.64735 3.74914 3.30822 4.08827 3.30822 4.49895V13.4967C3.30822 13.9074 3.64735 14.2465 4.05803 14.2465H16.055C16.4657 14.2465 16.8048 13.9074 16.8048 13.4967V4.49895C16.8048 4.08827 16.4657 3.74914 16.055 3.74914H4.05803ZM1.80859 4.49895C1.80859 3.26005 2.81913 2.24951 4.05803 2.24951H16.055C17.2939 2.24951 18.3045 3.26005 18.3045 4.49895V13.4967C18.3045 14.7356 17.2939 15.7461 16.055 15.7461H4.05803C2.81913 15.7461 1.80859 14.7356 1.80859 13.4967V4.49895Z" fill="#202020"/>
<path fill-rule="evenodd" clip-rule="evenodd" d="M1.9442 4.06891C2.18168 3.72966 2.64921 3.64715 2.98846 3.88463L10.0566 8.83232L17.1247 3.88463C17.464 3.64715 17.9315 3.72966 18.169 4.06891C18.4065 4.40816 18.324 4.87569 17.9847 5.11317L10.4866 10.3619C10.2284 10.5426 9.88478 10.5426 9.62661 10.3619L2.12848 5.11317C1.78923 4.87569 1.70672 4.40816 1.9442 4.06891Z" fill="#202020"/>
</g>
<defs>
<clipPath id="clip0_2394_40890">
<rect width="17.9955" height="17.9955" fill="white" transform="translate(0.691406)"/>
</clipPath>
</defs>
</svg>
