<svg width="19" height="19" viewBox="0 0 19 19" fill="none" xmlns="http://www.w3.org/2000/svg">
<g clip-path="url(#clip0_2394_40893)">
<path fill-rule="evenodd" clip-rule="evenodd" d="M5.94084 3.24523C5.52673 3.24523 5.19103 3.58093 5.19103 3.99504V15.992C5.19103 16.4061 5.52673 16.7419 5.94084 16.7419H13.439C13.8531 16.7419 14.1888 16.4061 14.1888 15.992V3.99504C14.1888 3.58093 13.8531 3.24523 13.439 3.24523H5.94084ZM3.69141 3.99504C3.69141 2.75271 4.69851 1.74561 5.94084 1.74561H13.439C14.6813 1.74561 15.6884 2.75271 15.6884 3.99504V15.992C15.6884 17.2344 14.6813 18.2415 13.439 18.2415H5.94084C4.69851 18.2415 3.69141 17.2344 3.69141 15.992V3.99504Z" fill="#202020"/>
<path fill-rule="evenodd" clip-rule="evenodd" d="M8.9375 14.492C8.9375 14.0779 9.2732 13.7422 9.68731 13.7422H9.69481C10.1089 13.7422 10.4446 14.0779 10.4446 14.492C10.4446 14.9061 10.1089 15.2418 9.69481 15.2418H9.68731C9.2732 15.2418 8.9375 14.9061 8.9375 14.492Z" fill="#202020"/>
</g>
<defs>
<clipPath id="clip0_2394_40893">
<rect width="17.9955" height="17.9955" fill="white" transform="translate(0.691406 0.995605)"/>
</clipPath>
</defs>
</svg>
