<svg width="24" height="25" viewBox="0 0 24 25" fill="none" xmlns="http://www.w3.org/2000/svg">
<g clip-path="url(#clip0_4605_4576)">
<path d="M12 6.51367C15.79 6.51367 19.17 8.64367 20.82 12.0137C19.17 15.3837 15.79 17.5137 12 17.5137C8.21 17.5137 4.83 15.3837 3.18 12.0137C4.83 8.64367 8.21 6.51367 12 6.51367ZM12 4.51367C7 4.51367 2.73 7.62367 1 12.0137C2.73 16.4037 7 19.5137 12 19.5137C17 19.5137 21.27 16.4037 23 12.0137C21.27 7.62367 17 4.51367 12 4.51367ZM12 9.51367C13.38 9.51367 14.5 10.6337 14.5 12.0137C14.5 13.3937 13.38 14.5137 12 14.5137C10.62 14.5137 9.5 13.3937 9.5 12.0137C9.5 10.6337 10.62 9.51367 12 9.51367ZM12 7.51367C9.52 7.51367 7.5 9.53367 7.5 12.0137C7.5 14.4937 9.52 16.5137 12 16.5137C14.48 16.5137 16.5 14.4937 16.5 12.0137C16.5 9.53367 14.48 7.51367 12 7.51367Z" fill="#757575"/>
</g>
<defs>
<clipPath id="clip0_4605_4576">
<rect width="24" height="24" fill="white" transform="translate(0 0.513672)"/>
</clipPath>
</defs>
</svg>
