<svg width="25" height="25" viewBox="0 0 25 25" fill="none" xmlns="http://www.w3.org/2000/svg">
<path fill-rule="evenodd" clip-rule="evenodd" d="M12.248 2.1687C13.908 2.1687 15.248 3.5087 15.248 5.1687V13.1687C16.458 14.0787 17.248 15.5387 17.248 17.1687C17.248 19.9287 15.008 22.1687 12.248 22.1687C9.48805 22.1687 7.24805 19.9287 7.24805 17.1687C7.24805 15.5387 8.03805 14.0787 9.24805 13.1687V5.1687C9.24805 3.5087 10.588 2.1687 12.248 2.1687ZM13.248 14.0907V12.0974H12.748C12.468 12.0974 12.248 11.8774 12.248 11.5974C12.248 11.3174 12.468 11.0974 12.748 11.0974H13.248V9.1687H12.748C12.468 9.1687 12.248 8.9487 12.248 8.6687C12.248 8.3887 12.468 8.1687 12.748 8.1687H13.248V6.1687H12.748C12.468 6.1687 12.248 5.9487 12.248 5.6687C12.248 5.3887 12.468 5.1687 12.748 5.1687H13.248C13.248 4.6187 12.798 4.1687 12.248 4.1687C11.698 4.1687 11.248 4.6187 11.248 5.1687V14.0915C10.0175 14.5086 9.13184 15.6733 9.13184 17.0447C9.13184 18.7665 10.5276 20.1623 12.2493 20.1623C13.9711 20.1623 15.3668 18.7665 15.3668 17.0447C15.3668 15.6723 14.48 14.507 13.248 14.0907Z" fill="#FF5500"/>
</svg>
