<svg width="16" height="20" viewBox="0 0 16 20" fill="none" xmlns="http://www.w3.org/2000/svg">
<path d="M11 3.99902C11 2.34217 9.65685 0.999023 8 0.999023C6.34315 0.999023 5 2.34217 5 3.99902L5 8.99902C5 10.6559 6.34315 11.999 8 11.999C9.65685 11.999 11 10.6559 11 8.99902L11 3.99902Z" stroke="#333A4D" stroke-width="2" stroke-linejoin="round"/>
<path d="M1 8.99902C1 9.91828 1.18106 10.8285 1.53284 11.6778C1.88463 12.5271 2.40024 13.2988 3.05025 13.9488C3.70026 14.5988 4.47194 15.1144 5.32122 15.4662C6.17049 15.818 7.08075 15.999 8 15.999C8.91925 15.999 9.82951 15.818 10.6788 15.4662C11.5281 15.1144 12.2997 14.5988 12.9497 13.9488C13.5998 13.2988 14.1154 12.5271 14.4672 11.6778C14.8189 10.8285 15 9.91828 15 8.99902M8 18.999L8 16.999" stroke="#333A4D" stroke-width="2" stroke-linecap="round" stroke-linejoin="round"/>
</svg>
