<svg width="24" height="24" viewBox="0 0 24 24" fill="none" xmlns="http://www.w3.org/2000/svg">
<path d="M17 18.9998C17 21.7598 14.76 23.9998 12 23.9998H5C2.24 23.9998 0 21.7598 0 18.9998V11.9998C0 9.23977 2.24 6.99976 5 6.99976H6C6.55 6.99976 7 7.44977 7 7.99977C7 8.54977 6.55 8.99977 6 8.99977H5C3.35 8.99977 2 10.3498 2 11.9998V18.9998C2 20.6498 3.35 21.9998 5 21.9998H12C13.65 21.9998 15 20.6498 15 18.9998C15 18.4498 15.45 17.9998 16 17.9998C16.55 17.9998 17 18.4498 17 18.9998ZM23.13 5.88976L17.72 0.299765C17.34 -0.100235 16.7 -0.110235 16.31 0.279765C15.92 0.669765 15.9 1.29977 16.29 1.68977L21.43 6.98976H13C10.24 6.98976 8 9.22976 8 11.9898V16.9898C8 17.5398 8.45 17.9898 9 17.9898C9.55 17.9898 10 17.5398 10 16.9898V11.9898C10 10.3398 11.35 8.98977 13 8.98977H21.42L16.28 14.2898C15.9 14.6898 15.9 15.3198 16.3 15.6998C16.49 15.8898 16.75 15.9798 17 15.9798C17.25 15.9798 17.52 15.8798 17.72 15.6798L23.12 10.1098C24.29 8.93976 24.29 7.03976 23.13 5.87977V5.88976Z" fill="#333A4D"/>
</svg>
