<svg width="29" height="29" viewBox="0 0 29 29" fill="none" xmlns="http://www.w3.org/2000/svg">
<path d="M14.5 0C6.50446 0 0 6.50446 0 14.5C0 22.4955 6.50446 29 14.5 29C22.4955 29 29 22.4955 29 14.5C29 6.50446 22.4955 0 14.5 0ZM8.45833 26.338V22.3542C8.45833 21.3549 9.27154 20.5417 10.2708 20.5417H18.7292C19.7285 20.5417 20.5417 21.3549 20.5417 22.3542V26.338C18.728 27.2673 16.6738 27.7917 14.5 27.7917C12.3262 27.7917 10.272 27.2673 8.45833 26.338ZM21.75 25.6348V22.3542C21.75 20.6879 20.3943 19.3333 18.7292 19.3333H10.2708C8.60575 19.3333 7.25 20.6879 7.25 22.3542V25.6348C3.61533 23.2604 1.20833 19.1557 1.20833 14.5C1.20833 7.17146 7.17146 1.20833 14.5 1.20833C21.8285 1.20833 27.7917 7.17146 27.7917 14.5C27.7917 19.1557 25.3847 23.2604 21.75 25.6348ZM14.5 7.25C11.8344 7.25 9.66667 9.41775 9.66667 12.0833C9.66667 14.7489 11.8344 16.9167 14.5 16.9167C17.1656 16.9167 19.3333 14.7489 19.3333 12.0833C19.3333 9.41775 17.1656 7.25 14.5 7.25ZM14.5 15.7083C12.5014 15.7083 10.875 14.0819 10.875 12.0833C10.875 10.0848 12.5014 8.45833 14.5 8.45833C16.4986 8.45833 18.125 10.0848 18.125 12.0833C18.125 14.0819 16.4986 15.7083 14.5 15.7083Z" fill="#333A4D"/>
</svg>
