<svg width="44" height="44" viewBox="0 0 44 44" fill="none" xmlns="http://www.w3.org/2000/svg">
<g clip-path="url(#clip0_104_123)">
<path d="M28.3122 23.1221C29.2453 24.0663 28.5762 25.6668 27.2488 25.6668H23.8333V28.4168C23.8333 29.9348 22.6032 31.1668 21.0833 31.1668C19.5635 31.1668 18.3333 29.9348 18.3333 28.4168V25.6668H14.9178C13.5905 25.6668 12.9213 24.0663 13.8545 23.1221L19.9027 16.9951C20.5517 16.3369 21.615 16.3369 22.264 16.9951L28.3122 23.1221ZM44 26.5431C44 34.1661 37.8327 40.3334 30.25 40.3334H10.0833C4.52283 40.3334 0 35.8106 0 30.2501C0 27.1774 1.29983 24.1598 3.47783 22.1798C3.68867 21.9891 3.80967 21.7214 3.773 21.5326C3.42833 19.7598 3.40817 17.9411 3.71067 16.1206C4.7355 9.94961 9.548 5.04727 15.6878 3.92527C22.4198 2.68961 29.1463 6.11427 32.0577 12.2486C32.1677 12.4814 32.3785 12.6373 32.6517 12.6923C39.2242 14.0031 43.9963 19.8276 43.9963 26.5431H44ZM38.5 26.5834C38.5 22.4419 35.5868 18.8853 31.5755 18.0841C29.5808 17.6826 27.9473 16.4158 27.0893 14.6026C25.4815 11.2091 22.1632 9.16861 18.5002 9.16861C17.9007 9.16861 17.2938 9.22177 16.6815 9.33544C12.8755 10.0321 9.7735 13.1928 9.13917 17.0226C8.94483 18.1941 8.95583 19.3583 9.17583 20.4839C9.57733 22.5556 8.81283 24.7648 7.18117 26.2498C6.16183 27.1774 5.50183 28.7468 5.50183 30.2519C5.50183 32.7801 7.55883 34.8353 10.0852 34.8353H30.2518C34.8003 34.8353 38.5018 31.1338 38.5018 26.5853L38.5 26.5834Z" fill="#FF5500"/>
</g>
<defs>
<clipPath id="clip0_104_123">
<rect width="44" height="44" fill="white"/>
</clipPath>
</defs>
</svg>
