<svg width="24" height="24" viewBox="0 0 24 24" fill="none" xmlns="http://www.w3.org/2000/svg">
<g clip-path="url(#clip0_104_327)">
<path d="M13 19.9999C14.3256 19.9983 15.5964 19.471 16.5338 18.5337C17.4711 17.5963 17.9984 16.3255 18 14.9999V6.2429C18.0016 5.71725 17.8988 5.19653 17.6976 4.71091C17.4964 4.22529 17.2008 3.78444 16.828 3.4139L14.586 1.1719C14.2155 0.799069 13.7746 0.503498 13.289 0.302315C12.8034 0.101133 12.2826 -0.00166002 11.757 -0.000104681H7C5.67441 0.00148318 4.40356 0.528777 3.46622 1.46612C2.52888 2.40345 2.00159 3.6743 2 4.9999V14.9999C2.00159 16.3255 2.52888 17.5963 3.46622 18.5337C4.40356 19.471 5.67441 19.9983 7 19.9999H13ZM4 14.9999V4.9999C4 4.20425 4.31607 3.44118 4.87868 2.87858C5.44129 2.31597 6.20435 1.9999 7 1.9999C7 1.9999 11.919 2.0139 12 2.0239V3.9999C12 4.53033 12.2107 5.03904 12.5858 5.41411C12.9609 5.78918 13.4696 5.9999 14 5.9999H15.976C15.986 6.08089 16 14.9999 16 14.9999C16 15.7955 15.6839 16.5586 15.1213 17.1212C14.5587 17.6838 13.7956 17.9999 13 17.9999H7C6.20435 17.9999 5.44129 17.6838 4.87868 17.1212C4.31607 16.5586 4 15.7955 4 14.9999ZM22 7.9999V18.9999C21.9984 20.3255 21.4711 21.5963 20.5338 22.5337C19.5964 23.471 18.3256 23.9983 17 23.9999H8C7.73478 23.9999 7.48043 23.8945 7.29289 23.707C7.10536 23.5195 7 23.2651 7 22.9999C7 22.7347 7.10536 22.4803 7.29289 22.2928C7.48043 22.1053 7.73478 21.9999 8 21.9999H17C17.7956 21.9999 18.5587 21.6838 19.1213 21.1212C19.6839 20.5586 20 19.7955 20 18.9999V7.9999C20 7.73468 20.1054 7.48032 20.2929 7.29279C20.4804 7.10525 20.7348 6.9999 21 6.9999C21.2652 6.9999 21.5196 7.10525 21.7071 7.29279C21.8946 7.48032 22 7.73468 22 7.9999Z" fill="#909090"/>
</g>
<defs>
<clipPath id="clip0_104_327">
<rect width="24" height="24" fill="white"/>
</clipPath>
</defs>
</svg>
