<svg width="24" height="24" viewBox="0 0 24 24" fill="none" xmlns="http://www.w3.org/2000/svg">
<path fill-rule="evenodd" clip-rule="evenodd" d="M4.95275 15.4645C5.89043 14.5268 7.1622 14 8.48828 14H16.4883C17.8144 14 19.0861 14.5268 20.0238 15.4645C20.9615 16.4021 21.4883 17.6739 21.4883 19V21C21.4883 21.5523 21.0406 22 20.4883 22C19.936 22 19.4883 21.5523 19.4883 21V19C19.4883 18.2044 19.1722 17.4413 18.6096 16.8787C18.047 16.3161 17.2839 16 16.4883 16H8.48828C7.69263 16 6.92957 16.3161 6.36696 16.8787C5.80435 17.4413 5.48828 18.2043 5.48828 19V21C5.48828 21.5523 5.04057 22 4.48828 22C3.936 22 3.48828 21.5523 3.48828 21V19C3.48828 17.6739 4.01507 16.4021 4.95275 15.4645Z" fill="#909090"/>
<path fill-rule="evenodd" clip-rule="evenodd" d="M12.4883 4C10.8314 4 9.48828 5.34315 9.48828 7C9.48828 8.65685 10.8314 10 12.4883 10C14.1451 10 15.4883 8.65685 15.4883 7C15.4883 5.34315 14.1451 4 12.4883 4ZM7.48828 7C7.48828 4.23858 9.72686 2 12.4883 2C15.2497 2 17.4883 4.23858 17.4883 7C17.4883 9.76142 15.2497 12 12.4883 12C9.72686 12 7.48828 9.76142 7.48828 7Z" fill="#909090"/>
</svg>
