<svg width="54" height="54" viewBox="0 0 54 54" fill="none" xmlns="http://www.w3.org/2000/svg">
<path d="M44.6085 47.0002H51.0085V52.3335H35.0085V36.3335H40.3418V43.6135C45.2218 39.6935 48.3418 33.7202 48.3418 27.0002C48.3418 16.1469 40.1818 7.16019 29.6751 5.85352V0.466858C43.1418 1.80019 53.6751 13.1602 53.6751 27.0002C53.6751 34.9735 50.1551 42.1202 44.6085 47.0002ZM5.67513 27.0002C5.67513 20.2802 8.79513 14.2802 13.6751 10.3869V17.6669H19.0085V1.66686H3.00846V7.00019H9.40846C3.8618 11.8802 0.341797 19.0269 0.341797 27.0002C0.341797 40.8402 10.8751 52.2002 24.3418 53.5335V48.1469C13.8351 46.8402 5.67513 37.8535 5.67513 27.0002Z" fill="#FF5500"/>
</svg>
