<svg width="19" height="19" viewBox="0 0 19 19" fill="none" xmlns="http://www.w3.org/2000/svg">
<g clip-path="url(#clip0_4577_5951)">
<path d="M12.3763 5.43377V13.3702C12.3763 14.938 11.2286 16.3333 9.66832 16.4833C7.87548 16.6558 6.37521 15.2531 6.37521 13.4978V4.22604C6.37521 3.24336 7.08034 2.3507 8.05552 2.25318C9.18073 2.14066 10.1259 3.01832 10.1259 4.12102V11.9975C10.1259 12.4101 9.78834 12.7476 9.37576 12.7476C8.96319 12.7476 8.62562 12.4101 8.62562 11.9975V5.43377C8.62562 5.12621 8.37058 4.87116 8.06302 4.87116C7.75546 4.87116 7.50042 5.12621 7.50042 5.43377V11.8925C7.50042 12.8751 8.20555 13.7678 9.18073 13.8653C10.3059 13.9778 11.2511 13.1002 11.2511 11.9975V4.24855C11.2511 2.68076 10.1034 1.2855 8.54311 1.13547C6.75778 0.962942 5.25 2.3657 5.25 4.12102V13.3252C5.25 15.4781 6.82529 17.406 8.97069 17.6085C11.4386 17.8336 13.5015 15.9132 13.5015 13.4978V5.43377C13.5015 5.12621 13.2465 4.87116 12.9389 4.87116C12.6314 4.87116 12.3763 5.12621 12.3763 5.43377Z" fill="#202020"/>
</g>
<defs>
<clipPath id="clip0_4577_5951">
<rect width="18.0033" height="18.0033" fill="white" transform="translate(0 0.370117)"/>
</clipPath>
</defs>
</svg>
