<svg width="56" height="50" viewBox="0 0 56 50" fill="none" xmlns="http://www.w3.org/2000/svg">
<path d="M28.0047 5.90959L49.6954 43.3859H6.31393L28.0047 5.90959ZM1.33053 40.5053C-0.887511 44.3365 1.87784 49.1471 6.31393 49.1471H49.6954C54.1315 49.1471 56.8969 44.3365 54.6788 40.5053L32.9881 3.02902C30.77 -0.802153 25.2393 -0.802153 23.0213 3.02902L1.33053 40.5053ZM25.1241 20.3413V26.1024C25.1241 27.6868 26.4204 28.983 28.0047 28.983C29.589 28.983 30.8853 27.6868 30.8853 26.1024V20.3413C30.8853 18.757 29.589 17.4607 28.0047 17.4607C26.4204 17.4607 25.1241 18.757 25.1241 20.3413ZM25.1241 34.7442H30.8853V40.5053H25.1241V34.7442Z" fill="#FF5500"/>
</svg>
