<svg width="44" height="57" viewBox="0 0 44 57" fill="none" xmlns="http://www.w3.org/2000/svg">
<path fill-rule="evenodd" clip-rule="evenodd" d="M14.5721 19.3366L14.4626 19.4361C13.8309 20.0104 12.239 21.4297 10.9984 22.434C10.9997 22.433 10.9976 22.4349 10.9924 22.4396C10.9256 22.5006 10.3386 23.0365 9.53828 24.0398C8.70995 25.0781 7.75513 26.4913 6.97254 28.1969C5.43784 31.5416 4.56923 35.9507 6.57168 41.1878C9.64358 49.222 17.7445 51.3236 21.4839 51.2723L21.5725 51.2711L21.6611 51.2729C23.7211 51.3131 27.2972 50.7685 30.6095 48.9523C33.7782 47.2148 36.6365 44.3736 37.9207 39.6181C39.4182 34.0725 38.2521 29.5635 36.4297 26.3382C35.9552 26.9576 35.33 27.6343 34.5281 28.2021C34.2631 28.4028 33.9022 28.6399 33.4471 28.8476C32.2441 29.3967 30.3235 29.7215 28.3894 28.6662C26.7643 27.7795 26.0128 26.3728 25.6813 25.6032C25.3125 24.7471 25.1031 23.8323 24.9664 22.9671L24.9432 22.82L24.9282 22.6719C24.7111 20.5269 23.8344 16.8399 21.9446 13.3746C21.3387 12.2635 20.6558 11.2224 19.8912 10.2791C18.9764 13.3447 17.3933 16.4709 14.6759 19.2312L14.5721 19.3366ZM15.3195 6.48381C14.7446 9.65091 13.4921 12.8314 10.8752 15.4896C10.2643 16.0449 8.76242 17.3823 7.64269 18.2887C6.24303 19.4218 -3.65363 29.3783 1.59007 43.0926C5.78502 54.064 16.6492 56.6724 21.557 56.6052C27.2937 56.7172 39.6276 53.7547 43.0696 41.0085C45.4736 32.1062 42.5519 25.1781 39.1511 20.87C37.6826 19.0098 36.1249 17.6381 34.8679 16.8069C34.8336 16.9132 34.7945 17.0376 34.7507 17.1771C34.7432 17.2011 34.7356 17.2255 34.7278 17.2504C34.5415 17.8449 34.2777 18.6869 33.9477 19.5795C33.6872 20.2839 33.3855 21.0198 33.0481 21.6902C33.0196 21.7469 32.9909 21.8031 32.9618 21.8587C32.9391 21.9024 32.9162 21.9457 32.8931 21.9887C32.4349 22.8426 31.9163 23.5579 31.35 23.9135C31.35 23.9135 30.838 24.4767 30.4357 23.0824C30.4357 23.0823 30.4357 23.0822 30.4357 23.0822C30.3641 22.8341 30.296 22.5241 30.2349 22.1379C30.2348 22.1369 30.2346 22.1358 30.2344 22.1348C30.141 21.2123 29.9612 20.1104 29.679 18.8972C29.5409 18.3034 29.3783 17.683 29.1893 17.0439C27.8956 12.6692 25.3662 7.42089 21.005 3.8638C19.4897 2.62797 17.7534 1.59628 15.7709 0.876305C15.7668 2.66184 15.6668 4.57038 15.3195 6.48381ZM27.9373 19.883C27.9371 19.8822 27.9464 19.8691 27.9659 19.8464C27.9472 19.8725 27.9375 19.8839 27.9373 19.883Z" fill="#FF5500"/>
</svg>
