<svg width="19" height="19" viewBox="0 0 19 19" fill="none" xmlns="http://www.w3.org/2000/svg">
<g clip-path="url(#clip0_2394_40896)">
<path fill-rule="evenodd" clip-rule="evenodd" d="M3.46428 9.31551C3.87839 9.31551 4.21409 9.65121 4.21409 10.0653V16.8136H14.7115V10.0653C14.7115 9.65121 15.0472 9.31551 15.4613 9.31551C15.8754 9.31551 16.2111 9.65121 16.2111 10.0653V17.5634C16.2111 17.9776 15.8754 18.3133 15.4613 18.3133H3.46428C3.05017 18.3133 2.71447 17.9776 2.71447 17.5634V10.0653C2.71447 9.65121 3.05017 9.31551 3.46428 9.31551Z" fill="#202020"/>
<path fill-rule="evenodd" clip-rule="evenodd" d="M1.21484 6.31626C1.21484 5.90215 1.55055 5.56644 1.96466 5.56644H16.9609C17.375 5.56644 17.7107 5.90215 17.7107 6.31626V10.0653C17.7107 10.4794 17.375 10.8151 16.9609 10.8151H1.96466C1.55055 10.8151 1.21484 10.4794 1.21484 10.0653V6.31626ZM2.71447 7.06607V9.31551H16.2111V7.06607H2.71447Z" fill="#202020"/>
<path fill-rule="evenodd" clip-rule="evenodd" d="M9.46278 5.56644C9.87689 5.56644 10.2126 5.90215 10.2126 6.31626V17.5634C10.2126 17.9776 9.87689 18.3133 9.46278 18.3133C9.04867 18.3133 8.71297 17.9776 8.71297 17.5634V6.31626C8.71297 5.90215 9.04867 5.56644 9.46278 5.56644Z" fill="#202020"/>
<path fill-rule="evenodd" clip-rule="evenodd" d="M6.08862 3.31701C5.79033 3.31701 5.50425 3.4355 5.29333 3.64643C5.0824 3.85736 4.96391 4.14343 4.96391 4.44173C4.96391 4.74002 5.0824 5.0261 5.29333 5.23702C5.50425 5.44795 5.79033 5.56644 6.08862 5.56644H8.45355C8.36201 5.32697 8.24614 5.06363 8.10283 4.80307C7.63123 3.94561 6.98383 3.31701 6.08862 3.31701ZM9.46278 6.31626C10.198 6.16921 10.198 6.16895 10.1979 6.16868L10.1975 6.16658L10.1967 6.16257L10.1942 6.1505C10.1921 6.14068 10.1892 6.12734 10.1855 6.11072C10.1781 6.0775 10.1673 6.03107 10.1529 5.97331C10.124 5.85795 10.0804 5.69648 10.0194 5.5041C9.89846 5.12204 9.7052 4.60469 9.41683 4.08038C8.85744 3.06331 7.81777 1.81738 6.08862 1.81738C5.3926 1.81738 4.72509 2.09388 4.23293 2.58604C3.74077 3.07819 3.46428 3.74571 3.46428 4.44173C3.46428 5.13775 3.74077 5.80526 4.23293 6.29742C4.72509 6.78958 5.3926 7.06607 6.08862 7.06607H9.46278C9.68742 7.06607 9.90022 6.96535 10.0426 6.79163C10.1851 6.61791 10.242 6.38896 10.1979 6.16868L9.46278 6.31626Z" fill="#202020"/>
<path fill-rule="evenodd" clip-rule="evenodd" d="M9.50873 4.08038C10.0681 3.06331 11.1078 1.81738 12.8369 1.81738C13.533 1.81738 14.2005 2.09388 14.6926 2.58604C15.1848 3.07819 15.4613 3.74571 15.4613 4.44173C15.4613 5.13775 15.1848 5.80526 14.6926 6.29742C14.2005 6.78958 13.533 7.06607 12.8369 7.06607H9.46278C9.23814 7.06607 9.02534 6.96535 8.88292 6.79163C8.7405 6.61791 8.68347 6.38948 8.72753 6.16921L9.46278 6.31626C8.72753 6.16921 8.72747 6.16948 8.72753 6.16921L8.72776 6.16807L8.72806 6.16658L8.72888 6.16257L8.73139 6.1505C8.73347 6.14068 8.73635 6.12734 8.74006 6.11072C8.74748 6.0775 8.75826 6.03107 8.7727 5.97331C8.80154 5.85795 8.8452 5.69648 8.90612 5.5041C9.0271 5.12204 9.22036 4.60469 9.50873 4.08038ZM10.472 5.56644H12.8369C13.1352 5.56644 13.4213 5.44795 13.6322 5.23702C13.8432 5.0261 13.9617 4.74002 13.9617 4.44173C13.9617 4.14343 13.8432 3.85736 13.6322 3.64643C13.4213 3.4355 13.1352 3.31701 12.8369 3.31701C11.9417 3.31701 11.2943 3.94561 10.8227 4.80307C10.6794 5.06363 10.5635 5.32697 10.472 5.56644ZM10.1978 6.46457C10.1977 6.46481 10.1977 6.46477 10.1978 6.46457V6.46457Z" fill="#202020"/>
</g>
<defs>
<clipPath id="clip0_2394_40896">
<rect width="17.9955" height="17.9955" fill="white" transform="translate(0.691406 0.991211)"/>
</clipPath>
</defs>
</svg>
