<svg width="44" height="54" viewBox="0 0 44 54" fill="none" xmlns="http://www.w3.org/2000/svg">
<path d="M22.0013 0.333008C7.78797 12.4663 0.667969 22.9463 0.667969 31.7997C0.667969 45.0797 10.8013 53.6663 22.0013 53.6663C33.2013 53.6663 43.3346 45.0797 43.3346 31.7997C43.3346 22.9463 36.2146 12.4663 22.0013 0.333008ZM22.0013 48.333C13.068 48.333 6.0013 41.4797 6.0013 31.7997C6.0013 25.5597 11.2013 17.293 22.0013 7.42634C32.8013 17.293 38.0013 25.533 38.0013 31.7997C38.0013 41.4797 30.9346 48.333 22.0013 48.333ZM10.8813 32.333C11.868 32.333 12.668 33.0263 12.8546 33.9863C13.948 39.9063 18.9346 41.933 22.5613 41.6397C23.708 41.5863 24.668 42.493 24.668 43.6397C24.668 44.7063 23.8146 45.5863 22.748 45.6397C17.068 45.9863 10.428 42.733 8.90797 34.653C8.69464 33.453 9.65464 32.333 10.8813 32.333Z" fill="#FF5500"/>
</svg>
