<svg width="24" height="24" viewBox="0 0 24 24" fill="none" xmlns="http://www.w3.org/2000/svg">
<path fill-rule="evenodd" clip-rule="evenodd" d="M5.99991 5.00874C5.737 5.00874 5.48486 5.11318 5.29896 5.29908C5.11305 5.48499 5.00862 5.73713 5.00862 6.00004V20C5.00862 20.2629 5.11305 20.5151 5.29896 20.701C5.48486 20.8869 5.737 20.9913 5.99991 20.9913H17.9999C18.2628 20.9913 18.515 20.8869 18.7009 20.701C18.8868 20.5151 18.9912 20.2629 18.9912 20V6.00004C18.9912 5.73713 18.8868 5.48499 18.7009 5.29908C18.515 5.11318 18.2628 5.00874 17.9999 5.00874H15.9999C15.4428 5.00874 14.9912 4.55713 14.9912 4.00004C14.9912 3.44294 15.4428 2.99133 15.9999 2.99133H17.9999C18.7979 2.99133 19.5631 3.30832 20.1274 3.87256C20.6916 4.4368 21.0086 5.20208 21.0086 6.00004V20C21.0086 20.798 20.6916 21.5633 20.1274 22.1275C19.5631 22.6917 18.7979 23.0087 17.9999 23.0087H5.99991C5.20196 23.0087 4.43668 22.6917 3.87244 22.1275C3.3082 21.5633 2.99121 20.798 2.99121 20V6.00004C2.99121 5.20208 3.3082 4.4368 3.87244 3.87256C4.43668 3.30832 5.20196 2.99133 5.99991 2.99133H7.99991C8.557 2.99133 9.00862 3.44294 9.00862 4.00004C9.00862 4.55713 8.557 5.00874 7.99991 5.00874H5.99991Z" fill="#909090"/>
<path fill-rule="evenodd" clip-rule="evenodd" d="M9.00862 3.00874V4.99133H14.9912V3.00874H9.00862ZM6.99121 3.00004C6.99121 1.89066 7.89054 0.991333 8.99991 0.991333H14.9999C16.1093 0.991333 17.0086 1.89066 17.0086 3.00004V5.00004C17.0086 6.10941 16.1093 7.00874 14.9999 7.00874H8.99991C7.89054 7.00874 6.99121 6.10941 6.99121 5.00004V3.00004Z" fill="#909090"/>
</svg>
