<svg width="22" height="22" viewBox="0 0 22 22" fill="none" xmlns="http://www.w3.org/2000/svg">
<path fill-rule="evenodd" clip-rule="evenodd" d="M11 2C10.783 2 10.5749 2.0862 10.4215 2.23964C10.268 2.39308 10.1818 2.60119 10.1818 2.81818V2.97672C10.1799 3.46427 10.0354 3.94062 9.76619 4.34712C9.49699 4.75362 9.11479 5.07253 8.66666 5.26459C8.58505 5.29957 8.49934 5.32344 8.41182 5.33573C8.0071 5.47577 7.57198 5.50987 7.14833 5.43305C6.65682 5.34393 6.20328 5.10962 5.84619 4.76032L5.8383 4.7526L5.7838 4.69802C5.70782 4.62194 5.61719 4.5612 5.51786 4.52003C5.41853 4.47885 5.31207 4.45766 5.20455 4.45766C5.09702 4.45766 4.99056 4.47885 4.89123 4.52003C4.7919 4.5612 4.70167 4.62155 4.62568 4.69762L4.6249 4.69841C4.54882 4.7744 4.48848 4.86463 4.4473 4.96396C4.40613 5.06328 4.38493 5.16975 4.38493 5.27727C4.38493 5.38479 4.40613 5.49126 4.4473 5.59059C4.48848 5.68991 4.54882 5.78015 4.6249 5.85614L4.68763 5.91887C5.03693 6.27596 5.2712 6.72955 5.36032 7.22106C5.44756 7.70219 5.39175 8.19811 5.20017 8.6475C5.025 9.1058 4.71874 9.50268 4.31929 9.78838C3.91127 10.0802 3.42489 10.2425 2.92338 10.2543L2.9 10.2545H2.81818C2.60119 10.2545 2.39308 10.3407 2.23964 10.4942C2.0862 10.6476 2 10.8557 2 11.0727C2 11.2897 2.0862 11.4978 2.23964 11.6513C2.39308 11.8047 2.60119 11.8909 2.81818 11.8909H2.97672C3.46427 11.8929 3.94062 12.0373 4.34712 12.3065C4.75214 12.5748 5.07021 12.9552 5.26249 13.4012C5.46244 13.8569 5.52185 14.3619 5.43305 14.8517C5.34393 15.3432 5.10962 15.7967 4.76032 16.1538L4.7526 16.1617L4.69801 16.2162C4.62194 16.2922 4.5612 16.3828 4.52003 16.4821C4.47885 16.5815 4.45766 16.6879 4.45766 16.7955C4.45766 16.903 4.47885 17.0094 4.52003 17.1088C4.5612 17.2081 4.62155 17.2983 4.69762 17.3743L4.69841 17.3751C4.77439 17.4512 4.86463 17.5115 4.96396 17.5527C5.06328 17.5939 5.16975 17.6151 5.27727 17.6151C5.38479 17.6151 5.49126 17.5939 5.59059 17.5527C5.68992 17.5115 5.78015 17.4512 5.85614 17.3751L5.91887 17.3124C6.27597 16.9631 6.72955 16.7288 7.22106 16.6397C7.70219 16.5524 8.1981 16.6082 8.64749 16.7998C9.1058 16.975 9.50268 17.2813 9.78838 17.6807C10.0802 18.0887 10.2425 18.5751 10.2543 19.0766L10.2545 19.1V19.1818C10.2545 19.3988 10.3407 19.6069 10.4942 19.7604C10.6476 19.9138 10.8557 20 11.0727 20C11.2897 20 11.4978 19.9138 11.6513 19.7604C11.8047 19.6069 11.8909 19.3988 11.8909 19.1818V19.0273L11.8909 19.0233C11.8929 18.5357 12.0373 18.0594 12.3065 17.6529C12.5747 17.2479 12.9551 16.9298 13.4011 16.7375C13.8568 16.5376 14.3619 16.4781 14.8517 16.5669C15.3432 16.6561 15.7967 16.8904 16.1538 17.2397L16.1617 17.2474L16.2162 17.302C16.2922 17.3781 16.3828 17.4388 16.4821 17.48C16.5815 17.5211 16.6879 17.5423 16.7955 17.5423C16.903 17.5423 17.0094 17.5211 17.1088 17.48C17.2081 17.4388 17.2983 17.3784 17.3743 17.3024L17.3751 17.3016C17.4512 17.2256 17.5115 17.1354 17.5527 17.036C17.5939 16.9367 17.6151 16.8302 17.6151 16.7227C17.6151 16.6152 17.5939 16.5087 17.5527 16.4094C17.5115 16.3101 17.4512 16.2198 17.3751 16.1439L17.3124 16.0811C16.9631 15.724 16.7288 15.2705 16.6397 14.7789C16.5509 14.2892 16.6103 13.7841 16.8103 13.3284C17.0025 12.8824 17.3206 12.502 17.7256 12.2338C18.1321 11.9646 18.6085 11.8201 19.096 11.8182L19.1 11.8182L19.1818 11.8182C19.3988 11.8182 19.6069 11.732 19.7604 11.5785C19.9138 11.4251 20 11.217 20 11C20 10.783 19.9138 10.5749 19.7604 10.4215C19.6069 10.268 19.3988 10.1818 19.1818 10.1818H19.0273L19.0233 10.1818C18.5357 10.1799 18.0594 10.0354 17.6529 9.76619C17.2464 9.49699 16.9275 9.1148 16.7354 8.66666C16.7004 8.58505 16.6766 8.49934 16.6643 8.41182C16.5242 8.0071 16.4901 7.57198 16.5669 7.14833C16.6561 6.65682 16.8904 6.20328 17.2397 5.84619L17.2474 5.83831L17.302 5.78381C17.3781 5.70782 17.4388 5.61718 17.48 5.51786C17.5211 5.41853 17.5423 5.31207 17.5423 5.20455C17.5423 5.09703 17.5211 4.99056 17.48 4.89123C17.4388 4.79191 17.3785 4.70167 17.3024 4.62568L17.3016 4.6249C17.2256 4.54882 17.1354 4.48847 17.036 4.4473C16.9367 4.40613 16.8302 4.38493 16.7227 4.38493C16.6152 4.38493 16.5087 4.40613 16.4094 4.4473C16.3101 4.48848 16.2198 4.54882 16.1439 4.6249L16.0811 4.68763C15.724 5.03693 15.2705 5.2712 14.7789 5.36032C14.2892 5.44912 13.7842 5.38971 13.3285 5.18977C12.8824 4.99748 12.502 4.67941 12.2338 4.27439C11.9646 3.86789 11.8201 3.39154 11.8182 2.90399L11.8182 2.9V2.81818C11.8182 2.60119 11.732 2.39308 11.5785 2.23964C11.4251 2.0862 11.217 2 11 2ZM9.00725 0.825426C9.53576 0.296915 10.2526 0 11 0C11.7474 0 12.4642 0.296915 12.9928 0.825426C13.5213 1.35394 13.8182 2.07075 13.8182 2.81818V2.89742C13.8188 2.99444 13.8477 3.08918 13.9013 3.17009C13.9551 3.25139 14.0316 3.31517 14.1212 3.35359L14.1311 3.35781C14.2225 3.39815 14.3238 3.41024 14.4221 3.39241C14.5191 3.37483 14.6087 3.32899 14.6796 3.26068L14.7289 3.21147C14.7287 3.2116 14.729 3.21134 14.7289 3.21147C14.9905 2.94963 15.3016 2.74151 15.6435 2.59975C15.9857 2.45793 16.3524 2.38493 16.7227 2.38493C17.0931 2.38493 17.4598 2.45793 17.8019 2.59975C18.144 2.74158 18.4549 2.94944 18.7166 3.21147C18.9782 3.47304 19.1858 3.78357 19.3275 4.12535C19.4693 4.46747 19.5423 4.83419 19.5423 5.20455C19.5423 5.5749 19.4693 5.94162 19.3275 6.28374C19.1858 6.62569 18.978 6.93636 18.7162 7.19801C18.7161 7.19815 18.7163 7.19788 18.7162 7.19801L18.6666 7.24761C18.5983 7.31858 18.5524 7.40817 18.5349 7.50515C18.517 7.60345 18.5291 7.70484 18.5694 7.79624C18.5951 7.8544 18.6151 7.91473 18.6292 7.97636C18.6641 8.02419 18.7073 8.06569 18.7572 8.0987C18.8381 8.15227 18.9328 8.18114 19.0298 8.18182H19.1818C19.9292 8.18182 20.6461 8.47873 21.1746 9.00725C21.7031 9.53576 22 10.2526 22 11C22 11.7474 21.7031 12.4642 21.1746 12.9928C20.6461 13.5213 19.9292 13.8182 19.1818 13.8182H19.1026C19.0056 13.8188 18.9108 13.8477 18.8299 13.9013C18.7486 13.9551 18.6848 14.0316 18.6464 14.1212L18.6422 14.1311C18.6018 14.2225 18.5898 14.3238 18.6076 14.4221C18.6252 14.5191 18.671 14.6087 18.7393 14.6797L18.7885 14.7289C18.7884 14.7287 18.7887 14.729 18.7885 14.7289C19.0504 14.9905 19.2585 15.3016 19.4002 15.6435C19.5421 15.9857 19.6151 16.3524 19.6151 16.7227C19.6151 17.0931 19.5421 17.4598 19.4002 17.8019C19.2584 18.144 19.0506 18.4549 18.7885 18.7166L18.0818 18.0091L18.7893 18.7158C18.5276 18.9778 18.2168 19.1857 17.8747 19.3275C17.5325 19.4693 17.1658 19.5423 16.7955 19.5423C16.4251 19.5423 16.0584 19.4693 15.7163 19.3275C15.3743 19.1858 15.0636 18.978 14.802 18.7162C14.8019 18.7161 14.8021 18.7163 14.802 18.7162L14.7524 18.6666C14.6814 18.5983 14.5918 18.5524 14.4949 18.5349C14.3966 18.517 14.2952 18.5291 14.2038 18.5694L14.194 18.5737C14.1043 18.6122 14.0279 18.6759 13.974 18.7572C13.9204 18.8381 13.8916 18.9328 13.8909 19.0299V19.1818C13.8909 19.9292 13.594 20.6461 13.0655 21.1746C12.537 21.7031 11.8202 22 11.0727 22C10.3253 22 9.60848 21.7031 9.07997 21.1746C8.55146 20.6461 8.25455 19.9292 8.25455 19.1818V19.1148C8.2506 19.0176 8.21835 18.9235 8.16164 18.8442C8.10327 18.7626 8.02171 18.7004 7.92755 18.6658C7.90777 18.6585 7.88824 18.6506 7.86896 18.6421C7.77756 18.6018 7.67618 18.5898 7.57787 18.6076C7.48089 18.6252 7.3913 18.671 7.32033 18.7393L7.27114 18.7885C7.27101 18.7887 7.27126 18.7884 7.27114 18.7885C7.00948 19.0504 6.69842 19.2585 6.35647 19.4002C6.01435 19.5421 5.64763 19.6151 5.27727 19.6151C4.90692 19.6151 4.5402 19.5421 4.19808 19.4002C3.8563 19.2586 3.54577 19.051 3.2842 18.7893C3.02217 18.5276 2.8143 18.2168 2.67248 17.8747C2.53066 17.5325 2.45766 17.1658 2.45766 16.7955C2.45766 16.4251 2.53066 16.0584 2.67248 15.7163C2.81423 15.3743 3.02196 15.0636 3.28381 14.802C3.28367 14.8021 3.28394 14.8019 3.28381 14.802L3.33341 14.7524C3.40171 14.6814 3.44756 14.5918 3.46514 14.4949C3.48296 14.3966 3.47093 14.2952 3.43059 14.2038L3.42626 14.194C3.38785 14.1043 3.32412 14.0279 3.24282 13.974C3.16191 13.9204 3.06717 13.8916 2.97015 13.8909H2.81818C2.07075 13.8909 1.35394 13.594 0.825426 13.0655C0.296915 12.537 0 11.8202 0 11.0727C0 10.3253 0.296915 9.60848 0.825426 9.07997C1.35394 8.55146 2.07075 8.25455 2.81818 8.25455H2.88517C2.98244 8.2506 3.07651 8.21835 3.1558 8.16164C3.2374 8.10327 3.29956 8.02171 3.33419 7.92755C3.34146 7.90777 3.34936 7.88824 3.35786 7.86896C3.3982 7.77756 3.41024 7.67618 3.39241 7.57787C3.37483 7.4809 3.32899 7.39132 3.26068 7.32035L3.21147 7.27114C3.21134 7.27101 3.2116 7.27127 3.21147 7.27114C2.94963 7.00949 2.74151 6.69842 2.59975 6.35647C2.45793 6.01435 2.38493 5.64763 2.38493 5.27727C2.38493 4.90692 2.45793 4.5402 2.59975 4.19808C2.74151 3.85613 2.94924 3.54545 3.21108 3.2838C3.47273 3.02196 3.7834 2.81423 4.12535 2.67248C4.46747 2.53066 4.83419 2.45766 5.20455 2.45766C5.5749 2.45766 5.94162 2.53066 6.28374 2.67248C6.62569 2.81423 6.93637 3.02196 7.19802 3.2838C7.19789 3.28367 7.19815 3.28393 7.19802 3.2838L7.24762 3.33341C7.31859 3.40171 7.40817 3.44756 7.50515 3.46514C7.60345 3.48296 7.70484 3.47093 7.79624 3.43059C7.85441 3.40492 7.91473 3.38492 7.97637 3.37078C8.0242 3.33592 8.0657 3.29266 8.0987 3.24282C8.15227 3.16193 8.18114 3.06721 8.18182 2.97022V2.81818C8.18182 2.07075 8.47873 1.35394 9.00725 0.825426ZM11 9.27273C10.0461 9.27273 9.27273 10.0461 9.27273 11C9.27273 11.9539 10.0461 12.7273 11 12.7273C11.9539 12.7273 12.7273 11.9539 12.7273 11C12.7273 10.0461 11.9539 9.27273 11 9.27273ZM7.27273 11C7.27273 8.94148 8.94148 7.27273 11 7.27273C13.0585 7.27273 14.7273 8.94148 14.7273 11C14.7273 13.0585 13.0585 14.7273 11 14.7273C8.94148 14.7273 7.27273 13.0585 7.27273 11Z" fill="#909090"/>
</svg>
