<svg width="14" height="14" viewBox="0 0 14 14" fill="none" xmlns="http://www.w3.org/2000/svg">
<path d="M6.71684 1.99286C7.65509 1.99286 8.41541 2.75317 8.41541 3.69143C8.41541 4.62968 7.65509 5.39 6.71684 5.39C5.77858 5.39 5.01827 4.62968 5.01827 3.69143C5.01827 2.75317 5.77858 1.99286 6.71684 1.99286ZM6.71684 9.27244C9.1191 9.27244 11.6508 10.4534 11.6508 10.971V11.8607H1.7829V10.971C1.7829 10.4534 4.31457 9.27244 6.71684 9.27244ZM6.71684 0.456055C4.92929 0.456055 3.48147 1.90388 3.48147 3.69143C3.48147 5.47897 4.92929 6.9268 6.71684 6.9268C8.50438 6.9268 9.95221 5.47897 9.95221 3.69143C9.95221 1.90388 8.50438 0.456055 6.71684 0.456055ZM6.71684 7.73564C4.55723 7.73564 0.246094 8.81949 0.246094 10.971V12.5887C0.246094 13.0336 0.610073 13.3975 1.05494 13.3975H12.3787C12.8236 13.3975 13.1876 13.0336 13.1876 12.5887V10.971C13.1876 8.81949 8.87645 7.73564 6.71684 7.73564Z" fill="#FF5500"/>
</svg>
